<svg version="1.1" id="Layer_1" xmlns="http://www.w3.org/2000/svg" xmlns:xlink="http://www.w3.org/1999/xlink" x="0px" y="0px"
	 width="100%" viewBox="0 0 1024 368" enable-background="new 0 0 1024 368" xml:space="preserve">
<path fill="#000000" opacity="1.000000" stroke="none" 
	d="
M266.630035,126.629715 
	C267.465576,125.786537 268.095367,125.230530 268.626801,124.592583 
	C276.784210,114.800186 281.792999,117.799637 288.204559,125.749603 
	C301.798889,142.605698 315.243134,159.582764 328.806976,176.463562 
	C331.830688,180.226730 335.019592,183.864960 338.264801,187.440567 
	C343.014221,192.673569 343.339661,192.648972 347.533752,187.218185 
	C351.606995,181.943985 355.599579,176.607452 359.620819,171.293167 
	C360.609589,169.986420 361.443848,168.517273 362.969879,167.980957 
	C365.315826,168.533615 365.782043,170.510956 366.725281,171.994995 
	C372.533386,181.132980 378.404877,190.234253 384.005005,199.499039 
	C386.155090,203.056107 388.036438,203.040237 391.060822,200.586288 
	C398.432526,194.604935 406.014404,188.883362 413.475220,183.010910 
	C416.942749,180.281586 420.317780,179.977783 423.897064,182.830063 
	C443.052460,198.094635 461.637848,214.035675 480.100922,230.121979 
	C480.691589,230.636581 481.075348,231.388611 481.212616,232.505661 
	C462.946320,222.012192 445.678253,209.931915 427.017273,199.348663 
	C425.438934,203.588730 425.353363,207.377151 425.383209,211.133591 
	C425.406921,214.116013 424.201294,215.350464 421.215851,215.262436 
	C417.054016,215.139740 412.882568,215.336761 408.721100,215.207947 
	C405.558868,215.110077 404.160187,216.311813 404.274933,219.590088 
	C404.432190,224.083023 404.220062,228.587769 404.307953,233.084671 
	C404.362946,235.897842 403.502411,237.470398 400.352966,237.403778 
	C394.190460,237.273422 388.023865,237.321426 381.858978,237.324631 
	C380.297974,237.325439 378.910736,236.818039 377.609406,236.044739 
	C360.413239,225.826416 343.566376,215.090500 327.818085,202.703964 
	C317.119690,194.289322 310.098480,182.891235 302.714020,171.817734 
	C296.523376,162.534454 290.685486,153.016235 284.656250,143.624619 
	C283.897278,142.442337 283.528687,140.813446 280.931610,140.390884 
	C282.122070,164.030823 283.301483,187.451462 284.554169,212.326645 
	C270.153931,203.510239 257.107666,195.522797 244.061401,187.535370 
	C243.538879,187.976669 243.016357,188.417969 242.493835,188.859268 
	C245.985565,199.131104 249.477280,209.402939 253.055634,219.929611 
	C250.508575,220.649658 249.406006,218.856674 248.141479,217.819946 
	C229.332474,202.399521 210.560898,186.933395 191.794861,171.460617 
	C187.931412,168.275162 183.934097,165.305527 179.563812,162.828766 
	C176.933563,161.338089 174.896851,161.771759 172.977234,164.025574 
	C156.608017,183.244644 135.755249,197.225311 116.108955,212.613647 
	C115.199303,213.326157 114.168404,213.901138 113.139549,214.435349 
	C112.750343,214.637436 112.206863,214.542389 111.232025,214.625656 
	C110.220528,209.297409 112.616119,204.158829 111.873421,198.004150 
	C87.159386,215.097382 59.450462,225.025009 32.952389,238.516464 
	C32.852764,235.325745 34.848087,235.003448 36.098530,234.200226 
	C60.626213,218.445068 85.184914,202.738144 109.752739,187.045578 
	C115.856575,183.146774 116.748909,183.302689 121.349236,189.229218 
	C122.761070,191.048050 124.078499,191.497665 125.884972,189.914978 
	C139.404068,178.070572 153.714020,167.016098 164.523682,152.412689 
	C171.497528,142.991287 176.783463,142.363480 185.300812,150.309296 
	C193.635284,158.084518 203.350937,163.942047 212.885117,170.060654 
	C215.675720,171.851532 217.532623,170.556152 219.552521,168.927444 
	C235.906418,155.740738 251.671875,141.899506 266.630035,126.629715 
z"/>
<path fill="#000000" opacity="1.000000" stroke="none" 
	d="
M967.919556,187.036194 
	C966.332642,184.492767 964.938171,182.254288 963.061584,179.241913 
	C961.955017,184.755402 962.491211,189.448975 962.591309,194.120880 
	C962.709045,199.614334 962.873535,205.107712 962.902466,210.601730 
	C962.917908,213.524017 962.839478,216.363602 958.523132,216.231537 
	C954.458313,216.107162 954.677856,213.456955 954.678162,210.710739 
	C954.679810,197.715378 954.593750,184.719330 954.722168,171.725342 
	C954.743958,169.514526 953.311768,166.335052 956.904785,165.410202 
	C960.595520,164.460175 963.604248,165.254105 965.812805,168.933640 
	C971.212036,177.929077 976.903015,186.749496 982.482544,195.636597 
	C983.535461,197.313858 984.616333,198.973572 986.651550,200.550858 
	C986.651550,190.386948 986.665771,180.223007 986.641235,170.059158 
	C986.635376,167.618256 986.553162,165.284027 989.974731,165.110474 
	C992.906799,164.961731 994.907776,165.735977 994.905212,169.121414 
	C994.894470,183.448135 994.921021,197.774994 994.857971,212.101456 
	C994.849915,213.930862 994.573303,215.898300 992.065613,216.120895 
	C989.002197,216.392822 986.171082,216.406601 984.228149,213.209564 
	C978.952209,204.528336 973.496460,195.956390 967.919556,187.036194 
z"/>
<path fill="#000000" opacity="1.000000" stroke="none" 
	d="
M543.687134,184.131546 
	C542.895813,187.195282 541.690125,189.753098 539.385376,191.138077 
	C535.746338,193.324875 536.568359,195.664597 538.144836,198.615845 
	C541.006042,203.972260 543.628540,209.456192 546.382812,214.951004 
	C539.827332,217.248779 538.254822,216.715057 535.723511,211.735687 
	C533.461365,207.285797 531.108643,202.875443 529.032349,198.339386 
	C526.982422,193.860687 523.123291,195.329788 519.901611,195.538177 
	C516.431458,195.762665 517.446716,198.917343 517.358826,201.059753 
	C517.215759,204.549347 517.218933,208.052261 517.341614,211.543198 
	C517.447510,214.556671 516.562195,216.263077 513.154602,216.203033 
	C509.761566,216.143234 508.927185,214.265930 508.936646,211.376373 
	C508.960114,204.219498 508.926086,197.062469 508.929413,189.905502 
	C508.932404,183.414307 509.043335,176.921585 508.933319,170.432480 
	C508.870331,166.716476 510.211365,164.824966 514.168274,165.031845 
	C519.313904,165.300873 524.495605,165.087753 529.617432,165.561050 
	C540.860291,166.599960 545.429626,172.603516 543.687134,184.131546 
M534.926392,175.812500 
	C531.920532,172.735413 522.208313,170.779465 518.829224,172.525299 
	C518.005310,172.950974 517.479065,173.581253 517.465698,174.424713 
	C517.402832,178.390228 517.399780,182.357239 517.429993,186.323303 
	C517.438293,187.414047 518.069031,188.409988 519.129272,188.468781 
	C523.875427,188.732025 528.788147,189.688492 532.993347,186.440842 
	C536.411011,183.801468 536.242798,180.217712 534.926392,175.812500 
z"/>
<path fill="#000000" opacity="1.000000" stroke="none" 
	d="
M767.611572,216.200638 
	C763.679993,216.748672 761.708862,215.089600 760.338928,211.898865 
	C758.568054,207.774292 756.071960,203.947327 754.462280,199.770905 
	C752.512695,194.712601 748.617737,195.105148 744.577942,195.469238 
	C742.266541,195.677567 742.272095,197.507690 742.257141,199.205658 
	C742.220581,203.370300 742.191345,207.535385 742.210999,211.700043 
	C742.223511,214.360535 741.558777,216.207962 738.338135,216.242325 
	C735.154602,216.276291 733.814209,214.930450 733.821777,211.770584 
	C733.855530,197.609985 733.847351,183.448944 733.758362,169.288651 
	C733.739685,166.318527 734.984253,165.001801 737.897217,165.022781 
	C744.223633,165.068375 750.574585,164.707443 756.849304,165.752228 
	C762.343750,166.667114 766.452393,169.486191 768.123901,175.057495 
	C769.892639,180.953003 769.223022,186.645416 764.243469,190.507889 
	C760.561646,193.363770 760.640625,195.584961 762.835632,199.142014 
	C765.363342,203.238174 767.330688,207.681519 769.515076,211.987457 
	C770.477600,213.884918 771.516418,215.866302 767.611572,216.200638 
M749.388428,172.223694 
	C742.230530,172.251938 742.090942,172.255920 742.289612,179.222427 
	C742.375732,182.240891 740.625244,186.582977 743.596375,188.002960 
	C747.357910,189.800598 752.086304,189.370834 756.138306,187.416077 
	C760.898438,185.119720 762.168457,178.353210 758.607300,174.724167 
	C756.326721,172.400070 753.313599,172.197296 749.388428,172.223694 
z"/>
<path fill="#000000" opacity="1.000000" stroke="none" 
	d="
M607.336121,170.186401 
	C607.355896,174.317001 607.427185,177.978958 607.369995,181.638901 
	C607.324951,184.525192 608.441833,185.878265 611.514954,185.768448 
	C616.168640,185.602127 620.838806,185.590881 625.490906,185.781342 
	C629.063904,185.927628 630.205200,184.252167 630.103638,180.976990 
	C629.990234,177.319260 630.072937,173.655533 630.063538,169.994446 
	C630.056335,167.190918 630.718384,165.100540 634.205444,165.136490 
	C637.508240,165.170532 638.416016,166.824249 638.397217,169.862167 
	C638.311829,183.674683 638.344666,197.488098 638.378113,211.301071 
	C638.384705,214.022675 638.177551,216.207397 634.537476,216.319412 
	C630.948242,216.429871 630.512695,214.557602 630.514526,211.646698 
	C630.517395,206.993927 630.049866,202.340698 630.058289,197.688156 
	C630.064514,194.255188 628.601746,192.904999 625.245789,192.986069 
	C620.755737,193.094574 616.258789,193.040451 611.767578,192.935150 
	C608.593933,192.860764 607.259949,194.241776 607.336487,197.430267 
	C607.452209,202.253342 607.255615,207.083649 607.356628,211.907425 
	C607.416260,214.755737 606.515381,216.238388 603.395020,216.234344 
	C600.157654,216.230133 599.541077,214.467606 599.552734,211.761978 
	C599.613098,197.783203 599.624695,183.804123 599.609558,169.825180 
	C599.606812,167.280701 599.835815,165.176529 603.166870,165.069153 
	C606.548889,164.960175 607.583923,166.698868 607.336121,170.186401 
z"/>
<path fill="#000000" opacity="1.000000" stroke="none" 
	d="
M691.997559,208.935120 
	C695.484009,208.970001 698.482605,208.973938 701.479431,209.047333 
	C703.755737,209.103088 704.775879,210.375946 704.646179,212.602264 
	C704.526855,214.650208 703.802734,216.168442 701.404724,216.168091 
	C692.742554,216.166840 684.080444,216.165833 675.418274,216.177994 
	C672.532654,216.182053 671.764771,214.436295 671.764893,211.938477 
	C671.765625,197.611588 671.774780,183.284561 671.709351,168.957916 
	C671.696411,166.137756 673.106567,165.046860 675.686462,165.050476 
	C683.848999,165.061920 692.011780,165.068863 700.173950,165.137222 
	C702.618225,165.157700 704.365601,166.019272 704.244690,168.961578 
	C704.131836,171.708160 702.386414,172.189896 700.185669,172.196793 
	C695.021301,172.212967 689.854736,172.319687 684.693359,172.201736 
	C681.597107,172.130951 680.254883,173.181717 680.117676,176.489029 
	C679.724182,185.974503 679.599304,185.967361 689.013977,185.946854 
	C691.679260,185.941040 694.344849,185.959518 697.009949,185.994003 
	C699.270264,186.023224 700.947571,186.756927 700.937622,189.414185 
	C700.928040,191.951263 699.473938,192.975845 697.127014,193.007584 
	C692.796265,193.066177 688.464355,193.159012 684.134277,193.112778 
	C681.439148,193.084030 680.363281,194.188461 680.151733,196.945251 
	C679.232361,208.926437 679.159241,208.920822 691.997559,208.935120 
z"/>
<path fill="#000000" opacity="1.000000" stroke="none" 
	d="
M553.201660,201.253357 
	C557.089844,190.582031 560.845459,180.275497 564.537354,169.946213 
	C565.560364,167.083954 566.903809,165.005295 570.460144,164.968338 
	C573.910950,164.932495 575.499329,166.631516 576.617065,169.604950 
	C581.879333,183.603745 587.253296,197.560532 592.588623,211.531860 
	C593.061096,212.769211 593.675354,213.992325 592.906494,215.331360 
	C586.746216,217.130859 585.643982,216.611755 583.646912,210.972214 
	C580.574829,202.296951 580.574829,202.296890 571.385803,202.373917 
	C570.886902,202.378098 570.387939,202.386292 569.889038,202.389572 
	C559.886536,202.455475 561.344360,201.557816 558.285950,210.828583 
	C556.376221,216.617493 555.697571,216.905258 548.436035,215.504669 
	C549.260132,210.632736 551.484863,206.215271 553.201660,201.253357 
M577.162170,193.742935 
	C575.423523,188.257462 574.009460,182.631744 570.547791,177.663727 
	C568.057739,183.485092 565.108398,188.782196 564.277893,195.537521 
	C568.992981,195.206406 573.168945,197.052002 577.162170,193.742935 
z"/>
<path fill="#000000" opacity="1.000000" stroke="none" 
	d="
M916.885132,178.004196 
	C917.909973,175.129303 918.931763,172.661606 919.690552,170.115555 
	C920.639648,166.931442 922.144470,164.991928 925.942749,164.985291 
	C929.496277,164.979065 930.886841,166.723053 931.975586,169.677719 
	C936.863220,182.942291 941.980469,196.123245 946.751099,209.428925 
	C947.461731,211.410965 950.514160,214.580399 946.112183,215.996719 
	C942.425964,217.182755 939.998169,215.569321 938.594849,211.642303 
	C934.919983,201.358307 937.254883,202.464325 925.418213,202.384293 
	C916.451538,202.323654 916.190674,202.293106 913.374329,211.152161 
	C911.741821,216.287491 908.877502,217.133163 903.359131,215.173676 
	C907.850708,202.845276 912.307983,190.610947 916.885132,178.004196 
M922.110901,185.560226 
	C921.435303,188.712036 919.066833,191.471695 919.819397,195.421432 
	C924.081848,195.621628 928.235596,196.281693 932.683472,194.909195 
	C930.960693,188.455917 928.809692,182.809692 925.922119,176.033051 
	C924.404541,179.737564 923.363708,182.278320 922.110901,185.560226 
z"/>
<path fill="#000000" opacity="1.000000" stroke="none" 
	d="
M816.085693,209.040955 
	C816.813660,211.267715 817.410522,213.126511 817.994507,214.945114 
	C812.032654,217.253571 810.504456,216.678528 808.434326,211.665024 
	C807.735168,209.971909 806.883972,208.323013 806.373169,206.574722 
	C805.414307,203.292328 803.269958,202.055099 799.998108,202.362228 
	C799.172729,202.439697 798.333191,202.362335 797.500122,202.360764 
	C786.412842,202.339874 786.288391,202.290558 782.144226,212.707977 
	C780.244690,217.483109 776.979126,216.116959 773.874878,215.822556 
	C772.880005,213.718933 773.772095,212.374130 774.274292,211.007904 
	C779.386780,197.098923 784.585754,183.221283 789.607788,169.279831 
	C790.669739,166.331650 792.337708,165.037140 795.463501,165.003754 
	C798.681213,164.969376 800.256714,166.539993 801.296997,169.364151 
	C806.130615,182.486374 811.059753,195.573395 816.085693,209.040955 
M791.270508,186.650513 
	C790.483398,189.437576 788.693420,191.987091 789.051575,195.316666 
	C793.453064,195.767273 797.629456,196.221497 802.444580,194.846939 
	C800.299072,188.892044 798.286682,183.306793 796.050049,177.099030 
	C792.823486,180.104767 792.727295,183.283249 791.270508,186.650513 
z"/>
<path fill="#000000" opacity="1.000000" stroke="none" 
	d="
M894.798706,215.653442 
	C892.326294,212.761215 891.498535,209.478912 890.493164,206.342758 
	C889.508789,203.271988 887.763733,201.981903 884.616455,202.358368 
	C883.631104,202.476227 882.619568,202.373001 881.619995,202.372910 
	C870.367249,202.371796 870.258667,202.329895 866.241821,212.708160 
	C864.394775,217.480515 861.184875,216.420044 857.960327,215.613083 
	C857.098389,214.364059 857.435120,213.387344 857.777710,212.458267 
	C863.019165,198.244812 868.316528,184.051743 873.500427,169.817352 
	C874.566284,166.890579 875.937317,164.982727 879.476929,164.959229 
	C883.007385,164.935776 884.389832,166.754837 885.485474,169.722626 
	C890.673889,183.777328 896.018799,197.774216 901.288025,211.799210 
	C901.685669,212.857651 902.375549,213.913803 901.662476,215.334763 
	C899.710327,216.793045 897.417908,216.216461 894.798706,215.653442 
M875.351929,186.725296 
	C874.730774,189.421112 872.855957,191.804779 873.309509,195.304810 
	C877.480713,195.723206 881.614685,196.203293 886.447144,194.909210 
	C884.270325,188.792221 882.212830,183.010345 879.866577,176.417130 
	C877.198181,179.934952 876.774597,183.138000 875.351929,186.725296 
z"/>
<path fill="#000000" opacity="1.000000" stroke="none" 
	d="
M840.880432,195.952301 
	C843.931396,186.923050 846.864319,178.258469 849.793274,169.592575 
	C850.565063,167.309036 851.462952,165.316086 854.405090,165.094315 
	C858.460022,164.788696 859.723328,166.051895 858.367310,169.862595 
	C853.291809,184.125671 848.101257,198.347824 842.965210,212.589401 
	C842.167297,214.802002 840.968323,216.357910 838.293213,216.234909 
	C836.098267,216.134003 833.738098,216.337463 832.800415,213.788803 
	C827.013367,198.059814 821.295593,182.305389 815.575012,166.614883 
	C821.646729,163.777893 823.766296,164.614716 825.726318,170.279907 
	C829.526672,181.264069 833.279663,192.264587 837.523254,204.630569 
	C838.923950,201.033569 839.842407,198.675034 840.880432,195.952301 
z"/>
<path fill="#000000" opacity="1.000000" stroke="none" 
	d="
M726.818970,194.125824 
	C726.756165,195.709671 726.645203,197.247742 725.465271,197.489944 
	C720.110229,198.589188 714.676758,198.493164 709.302063,197.637100 
	C707.763855,197.392090 707.785706,195.680450 707.787659,194.339981 
	C707.789429,193.130524 707.985168,191.743713 709.335938,191.580917 
	C714.869385,190.914093 720.439941,190.252686 725.895081,192.058121 
	C726.329895,192.202011 726.500488,193.144409 726.818970,194.125824 
z"/>
<path fill="#000000" opacity="1.000000" stroke="none" 
	d="
M655.412109,191.530014 
	C657.677856,191.585159 659.493591,191.653549 661.308289,191.630707 
	C663.500610,191.603104 664.769836,192.474762 664.694031,194.821915 
	C664.620911,197.088425 663.351135,198.052139 661.193909,198.056931 
	C657.233398,198.065720 653.272766,198.094208 649.312439,198.071564 
	C646.943176,198.058029 645.709595,196.983948 645.700867,194.437759 
	C645.691406,191.685440 647.358093,191.070816 649.542358,191.092239 
	C651.349915,191.109970 653.155273,191.357254 655.412109,191.530014 
z"/>
</svg>